G04 #@! TF.GenerationSoftware,KiCad,Pcbnew,7.0.9*
G04 #@! TF.CreationDate,2023-11-12T18:22:16+01:00*
G04 #@! TF.ProjectId,udb-s-panel,7564622d-732d-4706-916e-656c2e6b6963,rev?*
G04 #@! TF.SameCoordinates,Original*
G04 #@! TF.FileFunction,Soldermask,Bot*
G04 #@! TF.FilePolarity,Negative*
%FSLAX46Y46*%
G04 Gerber Fmt 4.6, Leading zero omitted, Abs format (unit mm)*
G04 Created by KiCad (PCBNEW 7.0.9) date 2023-11-12 18:22:16*
%MOMM*%
%LPD*%
G01*
G04 APERTURE LIST*
%ADD10C,0.650000*%
%ADD11O,1.100000X2.200000*%
%ADD12O,1.300000X1.700000*%
%ADD13C,0.500000*%
%ADD14C,3.600000*%
%ADD15C,6.000000*%
%ADD16C,2.000000*%
G04 APERTURE END LIST*
D10*
G04 #@! TO.C,J1*
X39488602Y24050003D03*
X33708602Y24050003D03*
D11*
X40918602Y23520003D03*
D12*
X40918602Y27700003D03*
D11*
X32278602Y23520003D03*
D12*
X32278602Y27700003D03*
G04 #@! TD*
D13*
G04 #@! TO.C,KiKit_MB_28_1*
X30498601Y20000003D03*
G04 #@! TD*
G04 #@! TO.C,KiKit_MB_27_2*
X28498602Y29000004D03*
G04 #@! TD*
G04 #@! TO.C,KiKit_MB_33_2*
X9028438Y12991294D03*
G04 #@! TD*
G04 #@! TO.C,KiKit_MB_26_3*
X48968765Y23991296D03*
G04 #@! TD*
G04 #@! TO.C,KiKit_MB_2_4*
X48739958Y56000009D03*
G04 #@! TD*
D14*
G04 #@! TO.C,H1*
X45498602Y35500005D03*
D15*
X45498602Y35500005D03*
G04 #@! TD*
D13*
G04 #@! TO.C,KiKit_MB_28_4*
X27498602Y20000003D03*
G04 #@! TD*
G04 #@! TO.C,KiKit_MB_8_1*
X72498602Y53000009D03*
G04 #@! TD*
D14*
G04 #@! TO.C,H1*
X87498603Y24500003D03*
D15*
X87498603Y24500003D03*
G04 #@! TD*
D13*
G04 #@! TO.C,KiKit_MB_40_3*
X70498602Y9000001D03*
G04 #@! TD*
G04 #@! TO.C,KiKit_MB_11_2*
X28498602Y51000008D03*
G04 #@! TD*
G04 #@! TO.C,KiKit_MB_26_2*
X48968765Y25008711D03*
G04 #@! TD*
D14*
G04 #@! TO.C,H1*
X87498603Y46500007D03*
D15*
X87498603Y46500007D03*
G04 #@! TD*
D13*
G04 #@! TO.C,KiKit_MB_11_3*
X29498601Y51000008D03*
G04 #@! TD*
D14*
G04 #@! TO.C,H1*
X45498602Y24500003D03*
D15*
X45498602Y24500003D03*
G04 #@! TD*
D13*
G04 #@! TO.C,KiKit_MB_41_2*
X9000000Y70200010D03*
G04 #@! TD*
G04 #@! TO.C,KiKit_MB_12_1*
X30498601Y42000007D03*
G04 #@! TD*
G04 #@! TO.C,KiKit_MB_12_2*
X29498601Y42000007D03*
G04 #@! TD*
G04 #@! TO.C,KiKit_MB_15_2*
X70498602Y51000008D03*
G04 #@! TD*
D10*
G04 #@! TO.C,J1*
X39488602Y46050007D03*
X33708602Y46050007D03*
D11*
X40918602Y45520007D03*
D12*
X40918602Y49700007D03*
D11*
X32278602Y45520007D03*
D12*
X32278602Y49700007D03*
G04 #@! TD*
D13*
G04 #@! TO.C,KiKit_MB_44_7*
X90997203Y3200000D03*
G04 #@! TD*
G04 #@! TO.C,KiKit_MB_43_4*
X9000000Y5600000D03*
G04 #@! TD*
G04 #@! TO.C,KiKit_MB_43_5*
X9000000Y4800000D03*
G04 #@! TD*
G04 #@! TO.C,KiKit_MB_30_2*
X90968766Y25008711D03*
G04 #@! TD*
G04 #@! TO.C,KiKit_MB_20_4*
X27498602Y31000005D03*
G04 #@! TD*
G04 #@! TO.C,KiKit_MB_39_4*
X72498602Y18000002D03*
G04 #@! TD*
G04 #@! TO.C,KiKit_MB_41_7*
X9000000Y66200010D03*
G04 #@! TD*
G04 #@! TO.C,KiKit_MB_7_2*
X70498602Y62000009D03*
G04 #@! TD*
G04 #@! TO.C,KiKit_MB_13_3*
X51028438Y47008715D03*
G04 #@! TD*
G04 #@! TO.C,KiKit_MB_44_4*
X90997203Y5600000D03*
G04 #@! TD*
G04 #@! TO.C,KiKit_MB_22_3*
X90968766Y34991298D03*
G04 #@! TD*
G04 #@! TO.C,KiKit_MB_34_1*
X48739958Y15000001D03*
G04 #@! TD*
G04 #@! TO.C,KiKit_MB_31_4*
X72498602Y29000004D03*
G04 #@! TD*
G04 #@! TO.C,KiKit_MB_26_4*
X48739958Y23000003D03*
G04 #@! TD*
G04 #@! TO.C,KiKit_MB_17_2*
X9028438Y34991298D03*
G04 #@! TD*
G04 #@! TO.C,KiKit_MB_20_2*
X29498601Y31000005D03*
G04 #@! TD*
G04 #@! TO.C,KiKit_MB_12_4*
X27498602Y42000007D03*
G04 #@! TD*
G04 #@! TO.C,KiKit_MB_47_1*
X91997204Y62000010D03*
G04 #@! TD*
G04 #@! TO.C,KiKit_MB_48_3*
X93597204Y9000000D03*
G04 #@! TD*
G04 #@! TO.C,KiKit_MB_48_10*
X99197204Y9000000D03*
G04 #@! TD*
G04 #@! TO.C,KiKit_MB_42_6*
X90997203Y67000010D03*
G04 #@! TD*
G04 #@! TO.C,KiKit_MB_29_3*
X51028438Y25008711D03*
G04 #@! TD*
G04 #@! TO.C,KiKit_MB_22_2*
X90968766Y36008713D03*
G04 #@! TD*
G04 #@! TO.C,KiKit_MB_20_3*
X28498602Y31000005D03*
G04 #@! TD*
G04 #@! TO.C,KiKit_MB_18_3*
X48968765Y34991298D03*
G04 #@! TD*
G04 #@! TO.C,KiKit_MB_8_4*
X69498602Y53000009D03*
G04 #@! TD*
G04 #@! TO.C,KiKit_MB_30_3*
X90968766Y23991296D03*
G04 #@! TD*
G04 #@! TO.C,KiKit_MB_32_3*
X70498602Y20000003D03*
G04 #@! TD*
G04 #@! TO.C,KiKit_MB_35_3*
X29498601Y18000002D03*
G04 #@! TD*
G04 #@! TO.C,KiKit_MB_47_9*
X98397204Y62000010D03*
G04 #@! TD*
G04 #@! TO.C,KiKit_MB_41_6*
X9000000Y67000010D03*
G04 #@! TD*
G04 #@! TO.C,KiKit_MB_30_4*
X90739959Y23000003D03*
G04 #@! TD*
G04 #@! TO.C,KiKit_MB_45_6*
X4000000Y62000010D03*
G04 #@! TD*
G04 #@! TO.C,KiKit_MB_29_1*
X51257245Y23000003D03*
G04 #@! TD*
G04 #@! TO.C,KiKit_MB_37_1*
X51257245Y12000001D03*
G04 #@! TD*
G04 #@! TO.C,KiKit_MB_43_8*
X9000000Y2400000D03*
G04 #@! TD*
D10*
G04 #@! TO.C,J1*
X81488603Y35050005D03*
X75708603Y35050005D03*
D11*
X82918603Y34520005D03*
D12*
X82918603Y38700005D03*
D11*
X74278603Y34520005D03*
D12*
X74278603Y38700005D03*
G04 #@! TD*
D13*
G04 #@! TO.C,KiKit_MB_36_3*
X28498602Y9000001D03*
G04 #@! TD*
G04 #@! TO.C,KiKit_MB_14_1*
X90739959Y48000007D03*
G04 #@! TD*
G04 #@! TO.C,KiKit_MB_17_3*
X9028438Y36008713D03*
G04 #@! TD*
G04 #@! TO.C,KiKit_MB_41_1*
X9000000Y71000010D03*
G04 #@! TD*
G04 #@! TO.C,KiKit_MB_1_2*
X9028438Y56991302D03*
G04 #@! TD*
G04 #@! TO.C,KiKit_MB_45_4*
X2400000Y62000010D03*
G04 #@! TD*
G04 #@! TO.C,KiKit_MB_2_3*
X48968765Y56991302D03*
G04 #@! TD*
G04 #@! TO.C,KiKit_MB_39_1*
X69498602Y18000002D03*
G04 #@! TD*
G04 #@! TO.C,KiKit_MB_4_2*
X29498601Y53000009D03*
G04 #@! TD*
G04 #@! TO.C,KiKit_MB_42_9*
X90997203Y64600010D03*
G04 #@! TD*
G04 #@! TO.C,KiKit_MB_42_1*
X90997203Y71000010D03*
G04 #@! TD*
G04 #@! TO.C,KiKit_MB_25_2*
X9028438Y23991296D03*
G04 #@! TD*
G04 #@! TO.C,KiKit_MB_44_6*
X90997203Y4000000D03*
G04 #@! TD*
G04 #@! TO.C,KiKit_MB_45_1*
X0Y62000010D03*
G04 #@! TD*
G04 #@! TO.C,KiKit_MB_24_3*
X70498602Y31000005D03*
G04 #@! TD*
G04 #@! TO.C,KiKit_MB_48_11*
X99997204Y9000000D03*
G04 #@! TD*
G04 #@! TO.C,KiKit_MB_45_8*
X5600000Y62000010D03*
G04 #@! TD*
G04 #@! TO.C,KiKit_MB_1_3*
X9028438Y58008716D03*
G04 #@! TD*
G04 #@! TO.C,KiKit_MB_28_2*
X29498601Y20000003D03*
G04 #@! TD*
G04 #@! TO.C,KiKit_MB_44_3*
X90997203Y6400000D03*
G04 #@! TD*
G04 #@! TO.C,KiKit_MB_36_2*
X29498601Y9000001D03*
G04 #@! TD*
G04 #@! TO.C,KiKit_MB_38_4*
X90739959Y12000001D03*
G04 #@! TD*
G04 #@! TO.C,KiKit_MB_15_4*
X72498602Y51000008D03*
G04 #@! TD*
G04 #@! TO.C,KiKit_MB_47_3*
X93597204Y62000010D03*
G04 #@! TD*
G04 #@! TO.C,KiKit_MB_24_2*
X71498602Y31000005D03*
G04 #@! TD*
G04 #@! TO.C,KiKit_MB_46_4*
X2400000Y9000000D03*
G04 #@! TD*
G04 #@! TO.C,KiKit_MB_42_11*
X90997203Y63000010D03*
G04 #@! TD*
G04 #@! TO.C,KiKit_MB_40_2*
X71498602Y9000001D03*
G04 #@! TD*
G04 #@! TO.C,KiKit_MB_45_11*
X8000000Y62000010D03*
G04 #@! TD*
G04 #@! TO.C,KiKit_MB_37_4*
X51257245Y15000001D03*
G04 #@! TD*
G04 #@! TO.C,KiKit_MB_9_3*
X9028438Y47008715D03*
G04 #@! TD*
G04 #@! TO.C,KiKit_MB_46_6*
X4000000Y9000000D03*
G04 #@! TD*
G04 #@! TO.C,KiKit_MB_4_1*
X30498601Y53000009D03*
G04 #@! TD*
G04 #@! TO.C,KiKit_MB_33_1*
X9257245Y12000001D03*
G04 #@! TD*
D14*
G04 #@! TO.C,H1*
X87498603Y13500001D03*
D15*
X87498603Y13500001D03*
G04 #@! TD*
D13*
G04 #@! TO.C,KiKit_MB_45_2*
X800000Y62000010D03*
G04 #@! TD*
G04 #@! TO.C,KiKit_MB_44_1*
X90997203Y8000000D03*
G04 #@! TD*
G04 #@! TO.C,KiKit_MB_43_9*
X9000000Y1600000D03*
G04 #@! TD*
D10*
G04 #@! TO.C,J1*
X39488602Y13050001D03*
X33708602Y13050001D03*
D11*
X40918602Y12520001D03*
D12*
X40918602Y16700001D03*
D11*
X32278602Y12520001D03*
D12*
X32278602Y16700001D03*
G04 #@! TD*
D13*
G04 #@! TO.C,KiKit_MB_19_3*
X29498601Y40000006D03*
G04 #@! TD*
G04 #@! TO.C,KiKit_MB_46_1*
X0Y9000000D03*
G04 #@! TD*
G04 #@! TO.C,KiKit_MB_43_3*
X9000000Y6400000D03*
G04 #@! TD*
G04 #@! TO.C,KiKit_MB_22_1*
X90739959Y37000005D03*
G04 #@! TD*
G04 #@! TO.C,KiKit_MB_19_1*
X27498602Y40000006D03*
G04 #@! TD*
G04 #@! TO.C,KiKit_MB_44_5*
X90997203Y4800000D03*
G04 #@! TD*
D10*
G04 #@! TO.C,J1*
X39488602Y35050005D03*
X33708602Y35050005D03*
D11*
X40918602Y34520005D03*
D12*
X40918602Y38700005D03*
D11*
X32278602Y34520005D03*
D12*
X32278602Y38700005D03*
G04 #@! TD*
D13*
G04 #@! TO.C,KiKit_MB_29_2*
X51028438Y23991296D03*
G04 #@! TD*
G04 #@! TO.C,KiKit_MB_48_9*
X98397204Y9000000D03*
G04 #@! TD*
G04 #@! TO.C,KiKit_MB_21_4*
X51257245Y37000005D03*
G04 #@! TD*
G04 #@! TO.C,KiKit_MB_35_2*
X28498602Y18000002D03*
G04 #@! TD*
G04 #@! TO.C,KiKit_MB_5_1*
X51257245Y56000009D03*
G04 #@! TD*
G04 #@! TO.C,KiKit_MB_1_4*
X9257245Y59000009D03*
G04 #@! TD*
D16*
G04 #@! TO.C,KiKit_TO_1*
X2500000Y68500010D03*
G04 #@! TD*
D13*
G04 #@! TO.C,KiKit_MB_42_5*
X90997203Y67800010D03*
G04 #@! TD*
G04 #@! TO.C,KiKit_MB_10_1*
X48739958Y48000007D03*
G04 #@! TD*
G04 #@! TO.C,KiKit_MB_47_7*
X96797204Y62000010D03*
G04 #@! TD*
G04 #@! TO.C,KiKit_MB_31_3*
X71498602Y29000004D03*
G04 #@! TD*
G04 #@! TO.C,KiKit_MB_32_1*
X72498602Y20000003D03*
G04 #@! TD*
G04 #@! TO.C,KiKit_MB_31_2*
X70498602Y29000004D03*
G04 #@! TD*
G04 #@! TO.C,KiKit_MB_21_2*
X51028438Y34991298D03*
G04 #@! TD*
G04 #@! TO.C,KiKit_MB_12_3*
X28498602Y42000007D03*
G04 #@! TD*
G04 #@! TO.C,KiKit_MB_42_7*
X90997203Y66200010D03*
G04 #@! TD*
D14*
G04 #@! TO.C,H1*
X87498603Y35500005D03*
D15*
X87498603Y35500005D03*
G04 #@! TD*
D10*
G04 #@! TO.C,J1*
X81488603Y46050007D03*
X75708603Y46050007D03*
D11*
X82918603Y45520007D03*
D12*
X82918603Y49700007D03*
D11*
X74278603Y45520007D03*
D12*
X74278603Y49700007D03*
G04 #@! TD*
D13*
G04 #@! TO.C,KiKit_MB_47_4*
X94397204Y62000010D03*
G04 #@! TD*
G04 #@! TO.C,KiKit_MB_16_3*
X70498602Y42000007D03*
G04 #@! TD*
G04 #@! TO.C,KiKit_MB_28_3*
X28498602Y20000003D03*
G04 #@! TD*
D10*
G04 #@! TO.C,J1*
X81488603Y24050003D03*
X75708603Y24050003D03*
D11*
X82918603Y23520003D03*
D12*
X82918603Y27700003D03*
D11*
X74278603Y23520003D03*
D12*
X74278603Y27700003D03*
G04 #@! TD*
D13*
G04 #@! TO.C,KiKit_MB_45_3*
X1600000Y62000010D03*
G04 #@! TD*
G04 #@! TO.C,KiKit_MB_21_1*
X51257245Y34000005D03*
G04 #@! TD*
G04 #@! TO.C,KiKit_MB_48_6*
X95997204Y9000000D03*
G04 #@! TD*
G04 #@! TO.C,KiKit_MB_27_3*
X29498601Y29000004D03*
G04 #@! TD*
G04 #@! TO.C,KiKit_MB_2_1*
X48739958Y59000009D03*
G04 #@! TD*
G04 #@! TO.C,KiKit_MB_3_3*
X29498601Y62000009D03*
G04 #@! TD*
G04 #@! TO.C,KiKit_MB_48_7*
X96797204Y9000000D03*
G04 #@! TD*
G04 #@! TO.C,KiKit_MB_13_1*
X51257245Y45000007D03*
G04 #@! TD*
G04 #@! TO.C,KiKit_MB_24_1*
X72498602Y31000005D03*
G04 #@! TD*
G04 #@! TO.C,KiKit_MB_27_4*
X30498601Y29000004D03*
G04 #@! TD*
G04 #@! TO.C,KiKit_MB_42_10*
X90997203Y63800010D03*
G04 #@! TD*
G04 #@! TO.C,KiKit_MB_35_4*
X30498601Y18000002D03*
G04 #@! TD*
G04 #@! TO.C,KiKit_MB_48_2*
X92797204Y9000000D03*
G04 #@! TD*
G04 #@! TO.C,KiKit_MB_18_4*
X48739958Y34000005D03*
G04 #@! TD*
G04 #@! TO.C,KiKit_MB_40_4*
X69498602Y9000001D03*
G04 #@! TD*
G04 #@! TO.C,KiKit_MB_15_3*
X71498602Y51000008D03*
G04 #@! TD*
G04 #@! TO.C,KiKit_MB_16_4*
X69498602Y42000007D03*
G04 #@! TD*
D10*
G04 #@! TO.C,J1*
X81488603Y57050009D03*
X75708603Y57050009D03*
D11*
X82918603Y56520009D03*
D12*
X82918603Y60700009D03*
D11*
X74278603Y56520009D03*
D12*
X74278603Y60700009D03*
G04 #@! TD*
D13*
G04 #@! TO.C,KiKit_MB_24_4*
X69498602Y31000005D03*
G04 #@! TD*
G04 #@! TO.C,KiKit_MB_23_3*
X71498602Y40000006D03*
G04 #@! TD*
G04 #@! TO.C,KiKit_MB_6_1*
X90739959Y59000009D03*
G04 #@! TD*
G04 #@! TO.C,KiKit_MB_9_4*
X9257245Y48000007D03*
G04 #@! TD*
G04 #@! TO.C,KiKit_MB_4_4*
X27498602Y53000009D03*
G04 #@! TD*
G04 #@! TO.C,KiKit_MB_34_3*
X48968765Y12991294D03*
G04 #@! TD*
G04 #@! TO.C,KiKit_MB_45_7*
X4800000Y62000010D03*
G04 #@! TD*
G04 #@! TO.C,KiKit_MB_14_4*
X90739959Y45000007D03*
G04 #@! TD*
G04 #@! TO.C,KiKit_MB_6_2*
X90968766Y58008716D03*
G04 #@! TD*
G04 #@! TO.C,KiKit_MB_46_10*
X7200000Y9000000D03*
G04 #@! TD*
G04 #@! TO.C,KiKit_MB_13_2*
X51028438Y45991300D03*
G04 #@! TD*
G04 #@! TO.C,KiKit_MB_34_4*
X48739958Y12000001D03*
G04 #@! TD*
G04 #@! TO.C,KiKit_MB_37_3*
X51028438Y14008709D03*
G04 #@! TD*
G04 #@! TO.C,KiKit_MB_47_10*
X99197204Y62000010D03*
G04 #@! TD*
G04 #@! TO.C,KiKit_MB_43_10*
X9000000Y800000D03*
G04 #@! TD*
G04 #@! TO.C,KiKit_MB_32_4*
X69498602Y20000003D03*
G04 #@! TD*
G04 #@! TO.C,KiKit_MB_44_2*
X90997203Y7200000D03*
G04 #@! TD*
G04 #@! TO.C,KiKit_MB_36_4*
X27498602Y9000001D03*
G04 #@! TD*
G04 #@! TO.C,KiKit_MB_46_3*
X1600000Y9000000D03*
G04 #@! TD*
G04 #@! TO.C,KiKit_MB_47_11*
X99997204Y62000010D03*
G04 #@! TD*
G04 #@! TO.C,KiKit_MB_3_2*
X28498602Y62000009D03*
G04 #@! TD*
G04 #@! TO.C,KiKit_MB_5_3*
X51028438Y58008716D03*
G04 #@! TD*
G04 #@! TO.C,KiKit_MB_14_3*
X90968766Y45991300D03*
G04 #@! TD*
G04 #@! TO.C,KiKit_MB_47_6*
X95997204Y62000010D03*
G04 #@! TD*
G04 #@! TO.C,KiKit_MB_5_4*
X51257245Y59000009D03*
G04 #@! TD*
D16*
G04 #@! TO.C,KiKit_TO_3*
X2500000Y2500000D03*
G04 #@! TD*
D13*
G04 #@! TO.C,KiKit_MB_46_8*
X5600000Y9000000D03*
G04 #@! TD*
G04 #@! TO.C,KiKit_MB_41_9*
X9000000Y64600010D03*
G04 #@! TD*
G04 #@! TO.C,KiKit_MB_17_4*
X9257245Y37000005D03*
G04 #@! TD*
G04 #@! TO.C,KiKit_MB_43_2*
X9000000Y7200000D03*
G04 #@! TD*
G04 #@! TO.C,KiKit_MB_23_2*
X70498602Y40000006D03*
G04 #@! TD*
G04 #@! TO.C,KiKit_MB_48_4*
X94397204Y9000000D03*
G04 #@! TD*
G04 #@! TO.C,KiKit_MB_16_1*
X72498602Y42000007D03*
G04 #@! TD*
G04 #@! TO.C,KiKit_MB_39_2*
X70498602Y18000002D03*
G04 #@! TD*
G04 #@! TO.C,KiKit_MB_38_1*
X90739959Y15000001D03*
G04 #@! TD*
G04 #@! TO.C,KiKit_MB_44_8*
X90997203Y2400000D03*
G04 #@! TD*
G04 #@! TO.C,KiKit_MB_48_1*
X91997204Y9000000D03*
G04 #@! TD*
G04 #@! TO.C,KiKit_MB_16_2*
X71498602Y42000007D03*
G04 #@! TD*
G04 #@! TO.C,KiKit_MB_47_5*
X95197204Y62000010D03*
G04 #@! TD*
G04 #@! TO.C,KiKit_MB_9_1*
X9257245Y45000007D03*
G04 #@! TD*
D14*
G04 #@! TO.C,H1*
X45498602Y46500007D03*
D15*
X45498602Y46500007D03*
G04 #@! TD*
D13*
G04 #@! TO.C,KiKit_MB_42_2*
X90997203Y70200010D03*
G04 #@! TD*
G04 #@! TO.C,KiKit_MB_46_9*
X6400000Y9000000D03*
G04 #@! TD*
G04 #@! TO.C,KiKit_MB_37_2*
X51028438Y12991294D03*
G04 #@! TD*
G04 #@! TO.C,KiKit_MB_43_11*
X9000000Y0D03*
G04 #@! TD*
G04 #@! TO.C,KiKit_MB_6_3*
X90968766Y56991302D03*
G04 #@! TD*
G04 #@! TO.C,KiKit_MB_43_1*
X9000000Y8000000D03*
G04 #@! TD*
G04 #@! TO.C,KiKit_MB_18_2*
X48968765Y36008713D03*
G04 #@! TD*
G04 #@! TO.C,KiKit_MB_4_3*
X28498602Y53000009D03*
G04 #@! TD*
D14*
G04 #@! TO.C,H1*
X45498602Y57500009D03*
D15*
X45498602Y57500009D03*
G04 #@! TD*
D13*
G04 #@! TO.C,KiKit_MB_40_1*
X72498602Y9000001D03*
G04 #@! TD*
G04 #@! TO.C,KiKit_MB_7_3*
X71498602Y62000009D03*
G04 #@! TD*
G04 #@! TO.C,KiKit_MB_42_4*
X90997203Y68600010D03*
G04 #@! TD*
G04 #@! TO.C,KiKit_MB_21_3*
X51028438Y36008713D03*
G04 #@! TD*
G04 #@! TO.C,KiKit_MB_41_3*
X9000000Y69400010D03*
G04 #@! TD*
G04 #@! TO.C,KiKit_MB_46_7*
X4800000Y9000000D03*
G04 #@! TD*
G04 #@! TO.C,KiKit_MB_11_4*
X30498601Y51000008D03*
G04 #@! TD*
G04 #@! TO.C,KiKit_MB_25_1*
X9257245Y23000003D03*
G04 #@! TD*
G04 #@! TO.C,KiKit_MB_10_4*
X48739958Y45000007D03*
G04 #@! TD*
G04 #@! TO.C,KiKit_MB_46_5*
X3200000Y9000000D03*
G04 #@! TD*
D10*
G04 #@! TO.C,J1*
X81488603Y13050001D03*
X75708603Y13050001D03*
D11*
X82918603Y12520001D03*
D12*
X82918603Y16700001D03*
D11*
X74278603Y12520001D03*
D12*
X74278603Y16700001D03*
G04 #@! TD*
D13*
G04 #@! TO.C,KiKit_MB_11_1*
X27498602Y51000008D03*
G04 #@! TD*
G04 #@! TO.C,KiKit_MB_26_1*
X48739958Y26000003D03*
G04 #@! TD*
G04 #@! TO.C,KiKit_MB_25_4*
X9257245Y26000003D03*
G04 #@! TD*
G04 #@! TO.C,KiKit_MB_33_4*
X9257245Y15000001D03*
G04 #@! TD*
G04 #@! TO.C,KiKit_MB_47_8*
X97597204Y62000010D03*
G04 #@! TD*
G04 #@! TO.C,KiKit_MB_23_4*
X72498602Y40000006D03*
G04 #@! TD*
G04 #@! TO.C,KiKit_MB_7_4*
X72498602Y62000009D03*
G04 #@! TD*
D14*
G04 #@! TO.C,H1*
X45498602Y13500001D03*
D15*
X45498602Y13500001D03*
G04 #@! TD*
D13*
G04 #@! TO.C,KiKit_MB_44_10*
X90997203Y800000D03*
G04 #@! TD*
G04 #@! TO.C,KiKit_MB_45_5*
X3200000Y62000010D03*
G04 #@! TD*
G04 #@! TO.C,KiKit_MB_8_3*
X70498602Y53000009D03*
G04 #@! TD*
G04 #@! TO.C,KiKit_MB_44_9*
X90997203Y1600000D03*
G04 #@! TD*
G04 #@! TO.C,KiKit_MB_31_1*
X69498602Y29000004D03*
G04 #@! TD*
G04 #@! TO.C,KiKit_MB_41_11*
X9000000Y63000010D03*
G04 #@! TD*
G04 #@! TO.C,KiKit_MB_36_1*
X30498601Y9000001D03*
G04 #@! TD*
G04 #@! TO.C,KiKit_MB_39_3*
X71498602Y18000002D03*
G04 #@! TD*
G04 #@! TO.C,KiKit_MB_22_4*
X90739959Y34000005D03*
G04 #@! TD*
G04 #@! TO.C,KiKit_MB_7_1*
X69498602Y62000009D03*
G04 #@! TD*
D16*
G04 #@! TO.C,KiKit_TO_2*
X97497204Y68500010D03*
G04 #@! TD*
D13*
G04 #@! TO.C,KiKit_MB_43_6*
X9000000Y4000000D03*
G04 #@! TD*
G04 #@! TO.C,KiKit_MB_19_2*
X28498602Y40000006D03*
G04 #@! TD*
G04 #@! TO.C,KiKit_MB_41_5*
X9000000Y67800010D03*
G04 #@! TD*
G04 #@! TO.C,KiKit_MB_43_7*
X9000000Y3200000D03*
G04 #@! TD*
G04 #@! TO.C,KiKit_MB_47_2*
X92797204Y62000010D03*
G04 #@! TD*
G04 #@! TO.C,KiKit_MB_30_1*
X90739959Y26000003D03*
G04 #@! TD*
G04 #@! TO.C,KiKit_MB_15_1*
X69498602Y51000008D03*
G04 #@! TD*
G04 #@! TO.C,KiKit_MB_45_9*
X6400000Y62000010D03*
G04 #@! TD*
G04 #@! TO.C,KiKit_MB_9_2*
X9028438Y45991300D03*
G04 #@! TD*
G04 #@! TO.C,KiKit_MB_33_3*
X9028438Y14008709D03*
G04 #@! TD*
G04 #@! TO.C,KiKit_MB_44_11*
X90997203Y0D03*
G04 #@! TD*
G04 #@! TO.C,KiKit_MB_10_2*
X48968765Y47008715D03*
G04 #@! TD*
G04 #@! TO.C,KiKit_MB_42_8*
X90997203Y65400010D03*
G04 #@! TD*
G04 #@! TO.C,KiKit_MB_32_2*
X71498602Y20000003D03*
G04 #@! TD*
G04 #@! TO.C,KiKit_MB_18_1*
X48739958Y37000005D03*
G04 #@! TD*
G04 #@! TO.C,KiKit_MB_25_3*
X9028438Y25008711D03*
G04 #@! TD*
G04 #@! TO.C,KiKit_MB_48_5*
X95197204Y9000000D03*
G04 #@! TD*
G04 #@! TO.C,KiKit_MB_41_8*
X9000000Y65400010D03*
G04 #@! TD*
G04 #@! TO.C,KiKit_MB_17_1*
X9257245Y34000005D03*
G04 #@! TD*
G04 #@! TO.C,KiKit_MB_3_4*
X30498601Y62000009D03*
G04 #@! TD*
G04 #@! TO.C,KiKit_MB_38_2*
X90968766Y14008709D03*
G04 #@! TD*
G04 #@! TO.C,KiKit_MB_42_3*
X90997203Y69400010D03*
G04 #@! TD*
G04 #@! TO.C,KiKit_MB_14_2*
X90968766Y47008715D03*
G04 #@! TD*
D14*
G04 #@! TO.C,H1*
X87498603Y57500009D03*
D15*
X87498603Y57500009D03*
G04 #@! TD*
D13*
G04 #@! TO.C,KiKit_MB_19_4*
X30498601Y40000006D03*
G04 #@! TD*
G04 #@! TO.C,KiKit_MB_46_11*
X8000000Y9000000D03*
G04 #@! TD*
G04 #@! TO.C,KiKit_MB_2_2*
X48968765Y58008716D03*
G04 #@! TD*
G04 #@! TO.C,KiKit_MB_38_3*
X90968766Y12991294D03*
G04 #@! TD*
G04 #@! TO.C,KiKit_MB_34_2*
X48968765Y14008709D03*
G04 #@! TD*
G04 #@! TO.C,KiKit_MB_45_10*
X7200000Y62000010D03*
G04 #@! TD*
G04 #@! TO.C,KiKit_MB_5_2*
X51028438Y56991302D03*
G04 #@! TD*
G04 #@! TO.C,KiKit_MB_41_10*
X9000000Y63800010D03*
G04 #@! TD*
G04 #@! TO.C,KiKit_MB_1_1*
X9257245Y56000009D03*
G04 #@! TD*
G04 #@! TO.C,KiKit_MB_48_8*
X97597204Y9000000D03*
G04 #@! TD*
G04 #@! TO.C,KiKit_MB_13_4*
X51257245Y48000007D03*
G04 #@! TD*
G04 #@! TO.C,KiKit_MB_6_4*
X90739959Y56000009D03*
G04 #@! TD*
G04 #@! TO.C,KiKit_MB_23_1*
X69498602Y40000006D03*
G04 #@! TD*
G04 #@! TO.C,KiKit_MB_20_1*
X30498601Y31000005D03*
G04 #@! TD*
G04 #@! TO.C,KiKit_MB_46_2*
X800000Y9000000D03*
G04 #@! TD*
G04 #@! TO.C,KiKit_MB_29_4*
X51257245Y26000003D03*
G04 #@! TD*
G04 #@! TO.C,KiKit_MB_10_3*
X48968765Y45991300D03*
G04 #@! TD*
G04 #@! TO.C,KiKit_MB_27_1*
X27498602Y29000004D03*
G04 #@! TD*
D10*
G04 #@! TO.C,J1*
X39488602Y57050009D03*
X33708602Y57050009D03*
D11*
X40918602Y56520009D03*
D12*
X40918602Y60700009D03*
D11*
X32278602Y56520009D03*
D12*
X32278602Y60700009D03*
G04 #@! TD*
D13*
G04 #@! TO.C,KiKit_MB_41_4*
X9000000Y68600010D03*
G04 #@! TD*
G04 #@! TO.C,KiKit_MB_3_1*
X27498602Y62000009D03*
G04 #@! TD*
G04 #@! TO.C,KiKit_MB_35_1*
X27498602Y18000002D03*
G04 #@! TD*
G04 #@! TO.C,KiKit_MB_8_2*
X71498602Y53000009D03*
G04 #@! TD*
D16*
G04 #@! TO.C,KiKit_FID_B_1*
X5000000Y67150010D03*
G04 #@! TD*
G04 #@! TO.C,KiKit_FID_B_3*
X5000000Y3850000D03*
G04 #@! TD*
G04 #@! TO.C,KiKit_FID_B_2*
X94997204Y67150010D03*
G04 #@! TD*
M02*
