G04 #@! TF.GenerationSoftware,KiCad,Pcbnew,7.0.9*
G04 #@! TF.CreationDate,2023-11-11T11:45:37+01:00*
G04 #@! TF.ProjectId,udb-s-panel,7564622d-732d-4706-916e-656c2e6b6963,rev?*
G04 #@! TF.SameCoordinates,Original*
G04 #@! TF.FileFunction,Other,Comment*
%FSLAX46Y46*%
G04 Gerber Fmt 4.6, Leading zero omitted, Abs format (unit mm)*
G04 Created by KiCad (PCBNEW 7.0.9) date 2023-11-11 11:45:37*
%MOMM*%
%LPD*%
G01*
G04 APERTURE LIST*
%ADD10C,0.400000*%
%ADD11C,0.150000*%
G04 APERTURE END LIST*
D10*
X-3000000Y40000009D02*
X109997204Y40000009D01*
X-3000000Y13000009D02*
X109997204Y13000009D01*
X93998601Y74000010D02*
X93998601Y-3000000D01*
X-3000000Y49000009D02*
X109997204Y49000009D01*
X-3000000Y31000009D02*
X109997204Y31000009D01*
X-3000000Y22000009D02*
X109997204Y22000009D01*
X12998601Y74000010D02*
X12998601Y-3000000D01*
X-3000000Y58000009D02*
X109997204Y58000009D01*
X113450837Y59095571D02*
X114117503Y57095571D01*
X114117503Y57095571D02*
X114784170Y59095571D01*
X115450837Y57857476D02*
X116974647Y57857476D01*
X119069884Y57286048D02*
X118974646Y57190809D01*
X118974646Y57190809D02*
X118688932Y57095571D01*
X118688932Y57095571D02*
X118498456Y57095571D01*
X118498456Y57095571D02*
X118212741Y57190809D01*
X118212741Y57190809D02*
X118022265Y57381286D01*
X118022265Y57381286D02*
X117927027Y57571762D01*
X117927027Y57571762D02*
X117831789Y57952714D01*
X117831789Y57952714D02*
X117831789Y58238429D01*
X117831789Y58238429D02*
X117927027Y58619381D01*
X117927027Y58619381D02*
X118022265Y58809857D01*
X118022265Y58809857D02*
X118212741Y59000333D01*
X118212741Y59000333D02*
X118498456Y59095571D01*
X118498456Y59095571D02*
X118688932Y59095571D01*
X118688932Y59095571D02*
X118974646Y59000333D01*
X118974646Y59000333D02*
X119069884Y58905095D01*
X119927027Y59095571D02*
X119927027Y57476524D01*
X119927027Y57476524D02*
X120022265Y57286048D01*
X120022265Y57286048D02*
X120117503Y57190809D01*
X120117503Y57190809D02*
X120307979Y57095571D01*
X120307979Y57095571D02*
X120688932Y57095571D01*
X120688932Y57095571D02*
X120879408Y57190809D01*
X120879408Y57190809D02*
X120974646Y57286048D01*
X120974646Y57286048D02*
X121069884Y57476524D01*
X121069884Y57476524D02*
X121069884Y59095571D01*
X121736551Y59095571D02*
X122879408Y59095571D01*
X122307979Y57095571D02*
X122307979Y59095571D01*
X113450837Y32095571D02*
X114117503Y30095571D01*
X114117503Y30095571D02*
X114784170Y32095571D01*
X115450837Y30857476D02*
X116974647Y30857476D01*
X119069884Y30286048D02*
X118974646Y30190809D01*
X118974646Y30190809D02*
X118688932Y30095571D01*
X118688932Y30095571D02*
X118498456Y30095571D01*
X118498456Y30095571D02*
X118212741Y30190809D01*
X118212741Y30190809D02*
X118022265Y30381286D01*
X118022265Y30381286D02*
X117927027Y30571762D01*
X117927027Y30571762D02*
X117831789Y30952714D01*
X117831789Y30952714D02*
X117831789Y31238429D01*
X117831789Y31238429D02*
X117927027Y31619381D01*
X117927027Y31619381D02*
X118022265Y31809857D01*
X118022265Y31809857D02*
X118212741Y32000333D01*
X118212741Y32000333D02*
X118498456Y32095571D01*
X118498456Y32095571D02*
X118688932Y32095571D01*
X118688932Y32095571D02*
X118974646Y32000333D01*
X118974646Y32000333D02*
X119069884Y31905095D01*
X119927027Y32095571D02*
X119927027Y30476524D01*
X119927027Y30476524D02*
X120022265Y30286048D01*
X120022265Y30286048D02*
X120117503Y30190809D01*
X120117503Y30190809D02*
X120307979Y30095571D01*
X120307979Y30095571D02*
X120688932Y30095571D01*
X120688932Y30095571D02*
X120879408Y30190809D01*
X120879408Y30190809D02*
X120974646Y30286048D01*
X120974646Y30286048D02*
X121069884Y30476524D01*
X121069884Y30476524D02*
X121069884Y32095571D01*
X121736551Y32095571D02*
X122879408Y32095571D01*
X122307979Y30095571D02*
X122307979Y32095571D01*
X113450837Y23095571D02*
X114117503Y21095571D01*
X114117503Y21095571D02*
X114784170Y23095571D01*
X115450837Y21857476D02*
X116974647Y21857476D01*
X119069884Y21286048D02*
X118974646Y21190809D01*
X118974646Y21190809D02*
X118688932Y21095571D01*
X118688932Y21095571D02*
X118498456Y21095571D01*
X118498456Y21095571D02*
X118212741Y21190809D01*
X118212741Y21190809D02*
X118022265Y21381286D01*
X118022265Y21381286D02*
X117927027Y21571762D01*
X117927027Y21571762D02*
X117831789Y21952714D01*
X117831789Y21952714D02*
X117831789Y22238429D01*
X117831789Y22238429D02*
X117927027Y22619381D01*
X117927027Y22619381D02*
X118022265Y22809857D01*
X118022265Y22809857D02*
X118212741Y23000333D01*
X118212741Y23000333D02*
X118498456Y23095571D01*
X118498456Y23095571D02*
X118688932Y23095571D01*
X118688932Y23095571D02*
X118974646Y23000333D01*
X118974646Y23000333D02*
X119069884Y22905095D01*
X119927027Y23095571D02*
X119927027Y21476524D01*
X119927027Y21476524D02*
X120022265Y21286048D01*
X120022265Y21286048D02*
X120117503Y21190809D01*
X120117503Y21190809D02*
X120307979Y21095571D01*
X120307979Y21095571D02*
X120688932Y21095571D01*
X120688932Y21095571D02*
X120879408Y21190809D01*
X120879408Y21190809D02*
X120974646Y21286048D01*
X120974646Y21286048D02*
X121069884Y21476524D01*
X121069884Y21476524D02*
X121069884Y23095571D01*
X121736551Y23095571D02*
X122879408Y23095571D01*
X122307979Y21095571D02*
X122307979Y23095571D01*
X11903039Y77453644D02*
X13903039Y78120310D01*
X13903039Y78120310D02*
X11903039Y78786977D01*
X13141134Y79453644D02*
X13141134Y80977453D01*
X13712562Y83072691D02*
X13807801Y82977453D01*
X13807801Y82977453D02*
X13903039Y82691739D01*
X13903039Y82691739D02*
X13903039Y82501263D01*
X13903039Y82501263D02*
X13807801Y82215548D01*
X13807801Y82215548D02*
X13617324Y82025072D01*
X13617324Y82025072D02*
X13426848Y81929834D01*
X13426848Y81929834D02*
X13045896Y81834596D01*
X13045896Y81834596D02*
X12760181Y81834596D01*
X12760181Y81834596D02*
X12379229Y81929834D01*
X12379229Y81929834D02*
X12188753Y82025072D01*
X12188753Y82025072D02*
X11998277Y82215548D01*
X11998277Y82215548D02*
X11903039Y82501263D01*
X11903039Y82501263D02*
X11903039Y82691739D01*
X11903039Y82691739D02*
X11998277Y82977453D01*
X11998277Y82977453D02*
X12093515Y83072691D01*
X11903039Y83929834D02*
X13522086Y83929834D01*
X13522086Y83929834D02*
X13712562Y84025072D01*
X13712562Y84025072D02*
X13807801Y84120310D01*
X13807801Y84120310D02*
X13903039Y84310786D01*
X13903039Y84310786D02*
X13903039Y84691739D01*
X13903039Y84691739D02*
X13807801Y84882215D01*
X13807801Y84882215D02*
X13712562Y84977453D01*
X13712562Y84977453D02*
X13522086Y85072691D01*
X13522086Y85072691D02*
X11903039Y85072691D01*
X11903039Y85739358D02*
X11903039Y86882215D01*
X13903039Y86310786D02*
X11903039Y86310786D01*
X92903039Y77453644D02*
X94903039Y78120310D01*
X94903039Y78120310D02*
X92903039Y78786977D01*
X94141134Y79453644D02*
X94141134Y80977453D01*
X94712562Y83072691D02*
X94807801Y82977453D01*
X94807801Y82977453D02*
X94903039Y82691739D01*
X94903039Y82691739D02*
X94903039Y82501263D01*
X94903039Y82501263D02*
X94807801Y82215548D01*
X94807801Y82215548D02*
X94617324Y82025072D01*
X94617324Y82025072D02*
X94426848Y81929834D01*
X94426848Y81929834D02*
X94045896Y81834596D01*
X94045896Y81834596D02*
X93760181Y81834596D01*
X93760181Y81834596D02*
X93379229Y81929834D01*
X93379229Y81929834D02*
X93188753Y82025072D01*
X93188753Y82025072D02*
X92998277Y82215548D01*
X92998277Y82215548D02*
X92903039Y82501263D01*
X92903039Y82501263D02*
X92903039Y82691739D01*
X92903039Y82691739D02*
X92998277Y82977453D01*
X92998277Y82977453D02*
X93093515Y83072691D01*
X92903039Y83929834D02*
X94522086Y83929834D01*
X94522086Y83929834D02*
X94712562Y84025072D01*
X94712562Y84025072D02*
X94807801Y84120310D01*
X94807801Y84120310D02*
X94903039Y84310786D01*
X94903039Y84310786D02*
X94903039Y84691739D01*
X94903039Y84691739D02*
X94807801Y84882215D01*
X94807801Y84882215D02*
X94712562Y84977453D01*
X94712562Y84977453D02*
X94522086Y85072691D01*
X94522086Y85072691D02*
X92903039Y85072691D01*
X92903039Y85739358D02*
X92903039Y86882215D01*
X94903039Y86310786D02*
X92903039Y86310786D01*
X113450837Y41095571D02*
X114117503Y39095571D01*
X114117503Y39095571D02*
X114784170Y41095571D01*
X115450837Y39857476D02*
X116974647Y39857476D01*
X119069884Y39286048D02*
X118974646Y39190809D01*
X118974646Y39190809D02*
X118688932Y39095571D01*
X118688932Y39095571D02*
X118498456Y39095571D01*
X118498456Y39095571D02*
X118212741Y39190809D01*
X118212741Y39190809D02*
X118022265Y39381286D01*
X118022265Y39381286D02*
X117927027Y39571762D01*
X117927027Y39571762D02*
X117831789Y39952714D01*
X117831789Y39952714D02*
X117831789Y40238429D01*
X117831789Y40238429D02*
X117927027Y40619381D01*
X117927027Y40619381D02*
X118022265Y40809857D01*
X118022265Y40809857D02*
X118212741Y41000333D01*
X118212741Y41000333D02*
X118498456Y41095571D01*
X118498456Y41095571D02*
X118688932Y41095571D01*
X118688932Y41095571D02*
X118974646Y41000333D01*
X118974646Y41000333D02*
X119069884Y40905095D01*
X119927027Y41095571D02*
X119927027Y39476524D01*
X119927027Y39476524D02*
X120022265Y39286048D01*
X120022265Y39286048D02*
X120117503Y39190809D01*
X120117503Y39190809D02*
X120307979Y39095571D01*
X120307979Y39095571D02*
X120688932Y39095571D01*
X120688932Y39095571D02*
X120879408Y39190809D01*
X120879408Y39190809D02*
X120974646Y39286048D01*
X120974646Y39286048D02*
X121069884Y39476524D01*
X121069884Y39476524D02*
X121069884Y41095571D01*
X121736551Y41095571D02*
X122879408Y41095571D01*
X122307979Y39095571D02*
X122307979Y41095571D01*
X113450837Y14095571D02*
X114117503Y12095571D01*
X114117503Y12095571D02*
X114784170Y14095571D01*
X115450837Y12857476D02*
X116974647Y12857476D01*
X119069884Y12286048D02*
X118974646Y12190809D01*
X118974646Y12190809D02*
X118688932Y12095571D01*
X118688932Y12095571D02*
X118498456Y12095571D01*
X118498456Y12095571D02*
X118212741Y12190809D01*
X118212741Y12190809D02*
X118022265Y12381286D01*
X118022265Y12381286D02*
X117927027Y12571762D01*
X117927027Y12571762D02*
X117831789Y12952714D01*
X117831789Y12952714D02*
X117831789Y13238429D01*
X117831789Y13238429D02*
X117927027Y13619381D01*
X117927027Y13619381D02*
X118022265Y13809857D01*
X118022265Y13809857D02*
X118212741Y14000333D01*
X118212741Y14000333D02*
X118498456Y14095571D01*
X118498456Y14095571D02*
X118688932Y14095571D01*
X118688932Y14095571D02*
X118974646Y14000333D01*
X118974646Y14000333D02*
X119069884Y13905095D01*
X119927027Y14095571D02*
X119927027Y12476524D01*
X119927027Y12476524D02*
X120022265Y12286048D01*
X120022265Y12286048D02*
X120117503Y12190809D01*
X120117503Y12190809D02*
X120307979Y12095571D01*
X120307979Y12095571D02*
X120688932Y12095571D01*
X120688932Y12095571D02*
X120879408Y12190809D01*
X120879408Y12190809D02*
X120974646Y12286048D01*
X120974646Y12286048D02*
X121069884Y12476524D01*
X121069884Y12476524D02*
X121069884Y14095571D01*
X121736551Y14095571D02*
X122879408Y14095571D01*
X122307979Y12095571D02*
X122307979Y14095571D01*
X113450837Y50095571D02*
X114117503Y48095571D01*
X114117503Y48095571D02*
X114784170Y50095571D01*
X115450837Y48857476D02*
X116974647Y48857476D01*
X119069884Y48286048D02*
X118974646Y48190809D01*
X118974646Y48190809D02*
X118688932Y48095571D01*
X118688932Y48095571D02*
X118498456Y48095571D01*
X118498456Y48095571D02*
X118212741Y48190809D01*
X118212741Y48190809D02*
X118022265Y48381286D01*
X118022265Y48381286D02*
X117927027Y48571762D01*
X117927027Y48571762D02*
X117831789Y48952714D01*
X117831789Y48952714D02*
X117831789Y49238429D01*
X117831789Y49238429D02*
X117927027Y49619381D01*
X117927027Y49619381D02*
X118022265Y49809857D01*
X118022265Y49809857D02*
X118212741Y50000333D01*
X118212741Y50000333D02*
X118498456Y50095571D01*
X118498456Y50095571D02*
X118688932Y50095571D01*
X118688932Y50095571D02*
X118974646Y50000333D01*
X118974646Y50000333D02*
X119069884Y49905095D01*
X119927027Y50095571D02*
X119927027Y48476524D01*
X119927027Y48476524D02*
X120022265Y48286048D01*
X120022265Y48286048D02*
X120117503Y48190809D01*
X120117503Y48190809D02*
X120307979Y48095571D01*
X120307979Y48095571D02*
X120688932Y48095571D01*
X120688932Y48095571D02*
X120879408Y48190809D01*
X120879408Y48190809D02*
X120974646Y48286048D01*
X120974646Y48286048D02*
X121069884Y48476524D01*
X121069884Y48476524D02*
X121069884Y50095571D01*
X121736551Y50095571D02*
X122879408Y50095571D01*
X122307979Y48095571D02*
X122307979Y50095571D01*
D11*
G04 #@! TO.C,H1*
X52298602Y26500003D02*
G75*
G03*
X52298602Y26500003I-2800000J0D01*
G01*
X52298602Y35500005D02*
G75*
G03*
X52298602Y35500005I-2800000J0D01*
G01*
G04 #@! TO.C,H2*
X60298603Y35500005D02*
G75*
G03*
X60298603Y35500005I-2800000J0D01*
G01*
G04 #@! TO.C,H1*
X93298603Y53500009D02*
G75*
G03*
X93298603Y53500009I-2800000J0D01*
G01*
G04 #@! TO.C,H2*
X60298603Y26500003D02*
G75*
G03*
X60298603Y26500003I-2800000J0D01*
G01*
X60298603Y17500001D02*
G75*
G03*
X60298603Y17500001I-2800000J0D01*
G01*
G04 #@! TO.C,H1*
X93298603Y26500003D02*
G75*
G03*
X93298603Y26500003I-2800000J0D01*
G01*
G04 #@! TO.C,H2*
X19298602Y35500005D02*
G75*
G03*
X19298602Y35500005I-2800000J0D01*
G01*
X19298602Y26500003D02*
G75*
G03*
X19298602Y26500003I-2800000J0D01*
G01*
X19298602Y44500007D02*
G75*
G03*
X19298602Y44500007I-2800000J0D01*
G01*
X19298602Y53500009D02*
G75*
G03*
X19298602Y53500009I-2800000J0D01*
G01*
X60298603Y53500009D02*
G75*
G03*
X60298603Y53500009I-2800000J0D01*
G01*
G04 #@! TO.C,H1*
X52298602Y17500001D02*
G75*
G03*
X52298602Y17500001I-2800000J0D01*
G01*
X52298602Y53500009D02*
G75*
G03*
X52298602Y53500009I-2800000J0D01*
G01*
X93298603Y35500005D02*
G75*
G03*
X93298603Y35500005I-2800000J0D01*
G01*
G04 #@! TO.C,H2*
X60298603Y44500007D02*
G75*
G03*
X60298603Y44500007I-2800000J0D01*
G01*
G04 #@! TO.C,H1*
X93298603Y44500007D02*
G75*
G03*
X93298603Y44500007I-2800000J0D01*
G01*
G04 #@! TO.C,H2*
X19298602Y17500001D02*
G75*
G03*
X19298602Y17500001I-2800000J0D01*
G01*
G04 #@! TO.C,H1*
X52298602Y44500007D02*
G75*
G03*
X52298602Y44500007I-2800000J0D01*
G01*
X93298603Y17500001D02*
G75*
G03*
X93298603Y17500001I-2800000J0D01*
G01*
G04 #@! TD*
M02*
