G04 #@! TF.GenerationSoftware,KiCad,Pcbnew,7.0.9*
G04 #@! TF.CreationDate,2023-11-11T11:45:37+01:00*
G04 #@! TF.ProjectId,udb-s-panel,7564622d-732d-4706-916e-656c2e6b6963,rev?*
G04 #@! TF.SameCoordinates,Original*
G04 #@! TF.FileFunction,Soldermask,Top*
G04 #@! TF.FilePolarity,Negative*
%FSLAX46Y46*%
G04 Gerber Fmt 4.6, Leading zero omitted, Abs format (unit mm)*
G04 Created by KiCad (PCBNEW 7.0.9) date 2023-11-11 11:45:37*
%MOMM*%
%LPD*%
G01*
G04 APERTURE LIST*
G04 Aperture macros list*
%AMRoundRect*
0 Rectangle with rounded corners*
0 $1 Rounding radius*
0 $2 $3 $4 $5 $6 $7 $8 $9 X,Y pos of 4 corners*
0 Add a 4 corners polygon primitive as box body*
4,1,4,$2,$3,$4,$5,$6,$7,$8,$9,$2,$3,0*
0 Add four circle primitives for the rounded corners*
1,1,$1+$1,$2,$3*
1,1,$1+$1,$4,$5*
1,1,$1+$1,$6,$7*
1,1,$1+$1,$8,$9*
0 Add four rect primitives between the rounded corners*
20,1,$1+$1,$2,$3,$4,$5,0*
20,1,$1+$1,$4,$5,$6,$7,0*
20,1,$1+$1,$6,$7,$8,$9,0*
20,1,$1+$1,$8,$9,$2,$3,0*%
G04 Aperture macros list end*
%ADD10RoundRect,0.135000X0.185000X-0.135000X0.185000X0.135000X-0.185000X0.135000X-0.185000X-0.135000X0*%
%ADD11RoundRect,0.135000X-0.185000X0.135000X-0.185000X-0.135000X0.185000X-0.135000X0.185000X0.135000X0*%
%ADD12C,3.600000*%
%ADD13C,6.000000*%
%ADD14RoundRect,0.218750X-0.381250X0.218750X-0.381250X-0.218750X0.381250X-0.218750X0.381250X0.218750X0*%
%ADD15RoundRect,0.250000X0.625000X-0.375000X0.625000X0.375000X-0.625000X0.375000X-0.625000X-0.375000X0*%
%ADD16RoundRect,0.125000X-0.150000X0.000000X-0.150000X0.000000X0.150000X0.000000X0.150000X0.000000X0*%
%ADD17R,0.550000X0.250000*%
%ADD18R,0.550000X0.300000*%
%ADD19C,2.000000*%
%ADD20C,0.650000*%
%ADD21RoundRect,0.060000X0.240000X0.665000X-0.240000X0.665000X-0.240000X-0.665000X0.240000X-0.665000X0*%
%ADD22RoundRect,0.060000X0.090000X0.665000X-0.090000X0.665000X-0.090000X-0.665000X0.090000X-0.665000X0*%
%ADD23O,1.100000X2.200000*%
%ADD24O,1.300000X1.700000*%
%ADD25R,0.700000X0.600000*%
%ADD26RoundRect,0.100000X-0.250000X-0.400000X0.250000X-0.400000X0.250000X0.400000X-0.250000X0.400000X0*%
%ADD27RoundRect,0.125000X-0.250000X-0.475000X0.250000X-0.475000X0.250000X0.475000X-0.250000X0.475000X0*%
G04 APERTURE END LIST*
D10*
G04 #@! TO.C,R1*
X33517352Y32667505D03*
X33517352Y33687505D03*
G04 #@! TD*
D11*
G04 #@! TO.C,R2*
X73317353Y24687503D03*
X73317353Y23667503D03*
G04 #@! TD*
D12*
G04 #@! TO.C,H1*
X49498602Y26500003D03*
D13*
X49498602Y26500003D03*
G04 #@! TD*
D14*
G04 #@! TO.C,FB1*
X34217352Y48040007D03*
X34217352Y45915007D03*
G04 #@! TD*
D15*
G04 #@! TO.C,F1*
X28617352Y32277505D03*
X28617352Y35077505D03*
G04 #@! TD*
D14*
G04 #@! TO.C,FB1*
X75217353Y57040009D03*
X75217353Y54915009D03*
G04 #@! TD*
D16*
G04 #@! TO.C,U1*
X69532353Y38677505D03*
D17*
X69532353Y38177505D03*
D18*
X69532353Y37677505D03*
D17*
X69532353Y37177505D03*
X69532353Y36677505D03*
X70302353Y36677505D03*
X70302353Y37177505D03*
D18*
X70302353Y37677505D03*
D17*
X70302353Y38177505D03*
X70302353Y38677505D03*
G04 #@! TD*
D12*
G04 #@! TO.C,H1*
X49498602Y35500005D03*
D13*
X49498602Y35500005D03*
G04 #@! TD*
D16*
G04 #@! TO.C,U1*
X28532352Y56677509D03*
D17*
X28532352Y56177509D03*
D18*
X28532352Y55677509D03*
D17*
X28532352Y55177509D03*
X28532352Y54677509D03*
X29302352Y54677509D03*
X29302352Y55177509D03*
D18*
X29302352Y55677509D03*
D17*
X29302352Y56177509D03*
X29302352Y56677509D03*
G04 #@! TD*
D19*
G04 #@! TO.C,KiKit_TO_1*
X2500000Y68500010D03*
G04 #@! TD*
D20*
G04 #@! TO.C,J1*
X84488603Y17050001D03*
X78708603Y17050001D03*
D21*
X84823603Y15605001D03*
X84048603Y15605001D03*
D22*
X82848603Y15605001D03*
X81848603Y15605001D03*
X81348603Y15605001D03*
X80348603Y15605001D03*
D21*
X78373603Y15605001D03*
X79148603Y15605001D03*
D22*
X79848603Y15605001D03*
X80848603Y15605001D03*
X82348603Y15605001D03*
X83348603Y15605001D03*
D23*
X85918603Y16520001D03*
D24*
X85918603Y20700001D03*
D23*
X77278603Y16520001D03*
D24*
X77278603Y20700001D03*
G04 #@! TD*
D20*
G04 #@! TO.C,J1*
X43488602Y44050007D03*
X37708602Y44050007D03*
D21*
X43823602Y42605007D03*
X43048602Y42605007D03*
D22*
X41848602Y42605007D03*
X40848602Y42605007D03*
X40348602Y42605007D03*
X39348602Y42605007D03*
D21*
X37373602Y42605007D03*
X38148602Y42605007D03*
D22*
X38848602Y42605007D03*
X39848602Y42605007D03*
X41348602Y42605007D03*
X42348602Y42605007D03*
D23*
X44918602Y43520007D03*
D24*
X44918602Y47700007D03*
D23*
X36278602Y43520007D03*
D24*
X36278602Y47700007D03*
G04 #@! TD*
D12*
G04 #@! TO.C,H1*
X90498603Y53500009D03*
D13*
X90498603Y53500009D03*
G04 #@! TD*
D16*
G04 #@! TO.C,U1*
X69532353Y47677507D03*
D17*
X69532353Y47177507D03*
D18*
X69532353Y46677507D03*
D17*
X69532353Y46177507D03*
X69532353Y45677507D03*
X70302353Y45677507D03*
X70302353Y46177507D03*
D18*
X70302353Y46677507D03*
D17*
X70302353Y47177507D03*
X70302353Y47677507D03*
G04 #@! TD*
D25*
G04 #@! TO.C,D1*
X71817353Y14077501D03*
X71817353Y15477501D03*
G04 #@! TD*
D15*
G04 #@! TO.C,F1*
X69617353Y32277505D03*
X69617353Y35077505D03*
G04 #@! TD*
D20*
G04 #@! TO.C,J1*
X84488603Y44050007D03*
X78708603Y44050007D03*
D21*
X84823603Y42605007D03*
X84048603Y42605007D03*
D22*
X82848603Y42605007D03*
X81848603Y42605007D03*
X81348603Y42605007D03*
X80348603Y42605007D03*
D21*
X78373603Y42605007D03*
X79148603Y42605007D03*
D22*
X79848603Y42605007D03*
X80848603Y42605007D03*
X82348603Y42605007D03*
X83348603Y42605007D03*
D23*
X85918603Y43520007D03*
D24*
X85918603Y47700007D03*
D23*
X77278603Y43520007D03*
D24*
X77278603Y47700007D03*
G04 #@! TD*
D26*
G04 #@! TO.C,J2*
X20548602Y32000005D03*
D27*
X21698602Y36000005D03*
X22898602Y36000005D03*
X24098602Y36000005D03*
X25298602Y36000005D03*
D26*
X26448602Y32000005D03*
G04 #@! TD*
G04 #@! TO.C,J2*
X61548603Y41000007D03*
D27*
X62698603Y45000007D03*
X63898603Y45000007D03*
X65098603Y45000007D03*
X66298603Y45000007D03*
D26*
X67448603Y41000007D03*
G04 #@! TD*
G04 #@! TO.C,J2*
X20548602Y50000009D03*
D27*
X21698602Y54000009D03*
X22898602Y54000009D03*
X24098602Y54000009D03*
X25298602Y54000009D03*
D26*
X26448602Y50000009D03*
G04 #@! TD*
D14*
G04 #@! TO.C,FB1*
X75217353Y21040001D03*
X75217353Y18915001D03*
G04 #@! TD*
D26*
G04 #@! TO.C,J2*
X20548602Y14000001D03*
D27*
X21698602Y18000001D03*
X22898602Y18000001D03*
X24098602Y18000001D03*
X25298602Y18000001D03*
D26*
X26448602Y14000001D03*
G04 #@! TD*
D10*
G04 #@! TO.C,R1*
X33517352Y14667501D03*
X33517352Y15687501D03*
G04 #@! TD*
D11*
G04 #@! TO.C,R2*
X32317352Y51687509D03*
X32317352Y50667509D03*
G04 #@! TD*
D25*
G04 #@! TO.C,D1*
X71817353Y32077505D03*
X71817353Y33477505D03*
G04 #@! TD*
D20*
G04 #@! TO.C,J1*
X43488602Y35050005D03*
X37708602Y35050005D03*
D21*
X43823602Y33605005D03*
X43048602Y33605005D03*
D22*
X41848602Y33605005D03*
X40848602Y33605005D03*
X40348602Y33605005D03*
X39348602Y33605005D03*
D21*
X37373602Y33605005D03*
X38148602Y33605005D03*
D22*
X38848602Y33605005D03*
X39848602Y33605005D03*
X41348602Y33605005D03*
X42348602Y33605005D03*
D23*
X44918602Y34520005D03*
D24*
X44918602Y38700005D03*
D23*
X36278602Y34520005D03*
D24*
X36278602Y38700005D03*
G04 #@! TD*
D10*
G04 #@! TO.C,R1*
X33517352Y23667503D03*
X33517352Y24687503D03*
G04 #@! TD*
G04 #@! TO.C,R1*
X74517353Y32667505D03*
X74517353Y33687505D03*
G04 #@! TD*
G04 #@! TO.C,R1*
X33517352Y50667509D03*
X33517352Y51687509D03*
G04 #@! TD*
D26*
G04 #@! TO.C,J2*
X61548603Y50000009D03*
D27*
X62698603Y54000009D03*
X63898603Y54000009D03*
X65098603Y54000009D03*
X66298603Y54000009D03*
D26*
X67448603Y50000009D03*
G04 #@! TD*
D10*
G04 #@! TO.C,R1*
X74517353Y41667507D03*
X74517353Y42687507D03*
G04 #@! TD*
D14*
G04 #@! TO.C,FB1*
X34217352Y39040005D03*
X34217352Y36915005D03*
G04 #@! TD*
D16*
G04 #@! TO.C,U1*
X28532352Y47677507D03*
D17*
X28532352Y47177507D03*
D18*
X28532352Y46677507D03*
D17*
X28532352Y46177507D03*
X28532352Y45677507D03*
X29302352Y45677507D03*
X29302352Y46177507D03*
D18*
X29302352Y46677507D03*
D17*
X29302352Y47177507D03*
X29302352Y47677507D03*
G04 #@! TD*
D15*
G04 #@! TO.C,F1*
X69617353Y14277501D03*
X69617353Y17077501D03*
G04 #@! TD*
D12*
G04 #@! TO.C,H1*
X90498603Y26500003D03*
D13*
X90498603Y26500003D03*
G04 #@! TD*
D20*
G04 #@! TO.C,J1*
X84488603Y35050005D03*
X78708603Y35050005D03*
D21*
X84823603Y33605005D03*
X84048603Y33605005D03*
D22*
X82848603Y33605005D03*
X81848603Y33605005D03*
X81348603Y33605005D03*
X80348603Y33605005D03*
D21*
X78373603Y33605005D03*
X79148603Y33605005D03*
D22*
X79848603Y33605005D03*
X80848603Y33605005D03*
X82348603Y33605005D03*
X83348603Y33605005D03*
D23*
X85918603Y34520005D03*
D24*
X85918603Y38700005D03*
D23*
X77278603Y34520005D03*
D24*
X77278603Y38700005D03*
G04 #@! TD*
D10*
G04 #@! TO.C,R1*
X33517352Y41667507D03*
X33517352Y42687507D03*
G04 #@! TD*
D25*
G04 #@! TO.C,D1*
X30817352Y50077509D03*
X30817352Y51477509D03*
G04 #@! TD*
D11*
G04 #@! TO.C,R2*
X32317352Y33687505D03*
X32317352Y32667505D03*
G04 #@! TD*
G04 #@! TO.C,R2*
X73317353Y15687501D03*
X73317353Y14667501D03*
G04 #@! TD*
D25*
G04 #@! TO.C,D1*
X30817352Y32077505D03*
X30817352Y33477505D03*
G04 #@! TD*
D11*
G04 #@! TO.C,R2*
X32317352Y24687503D03*
X32317352Y23667503D03*
G04 #@! TD*
D19*
G04 #@! TO.C,KiKit_FID_T_2*
X101997204Y67150010D03*
G04 #@! TD*
D11*
G04 #@! TO.C,R2*
X32317352Y15687501D03*
X32317352Y14667501D03*
G04 #@! TD*
G04 #@! TO.C,R2*
X73317353Y51687509D03*
X73317353Y50667509D03*
G04 #@! TD*
D14*
G04 #@! TO.C,FB1*
X34217352Y21040001D03*
X34217352Y18915001D03*
G04 #@! TD*
D16*
G04 #@! TO.C,U1*
X69532353Y29677503D03*
D17*
X69532353Y29177503D03*
D18*
X69532353Y28677503D03*
D17*
X69532353Y28177503D03*
X69532353Y27677503D03*
X70302353Y27677503D03*
X70302353Y28177503D03*
D18*
X70302353Y28677503D03*
D17*
X70302353Y29177503D03*
X70302353Y29677503D03*
G04 #@! TD*
D11*
G04 #@! TO.C,R2*
X73317353Y42687507D03*
X73317353Y41667507D03*
G04 #@! TD*
D25*
G04 #@! TO.C,D1*
X30817352Y41077507D03*
X30817352Y42477507D03*
G04 #@! TD*
D10*
G04 #@! TO.C,R1*
X74517353Y23667503D03*
X74517353Y24687503D03*
G04 #@! TD*
D19*
G04 #@! TO.C,KiKit_FID_T_1*
X5000000Y67150010D03*
G04 #@! TD*
D15*
G04 #@! TO.C,F1*
X28617352Y14277501D03*
X28617352Y17077501D03*
G04 #@! TD*
D26*
G04 #@! TO.C,J2*
X20548602Y41000007D03*
D27*
X21698602Y45000007D03*
X22898602Y45000007D03*
X24098602Y45000007D03*
X25298602Y45000007D03*
D26*
X26448602Y41000007D03*
G04 #@! TD*
D20*
G04 #@! TO.C,J1*
X84488603Y53050009D03*
X78708603Y53050009D03*
D21*
X84823603Y51605009D03*
X84048603Y51605009D03*
D22*
X82848603Y51605009D03*
X81848603Y51605009D03*
X81348603Y51605009D03*
X80348603Y51605009D03*
D21*
X78373603Y51605009D03*
X79148603Y51605009D03*
D22*
X79848603Y51605009D03*
X80848603Y51605009D03*
X82348603Y51605009D03*
X83348603Y51605009D03*
D23*
X85918603Y52520009D03*
D24*
X85918603Y56700009D03*
D23*
X77278603Y52520009D03*
D24*
X77278603Y56700009D03*
G04 #@! TD*
D16*
G04 #@! TO.C,U1*
X28532352Y29677503D03*
D17*
X28532352Y29177503D03*
D18*
X28532352Y28677503D03*
D17*
X28532352Y28177503D03*
X28532352Y27677503D03*
X29302352Y27677503D03*
X29302352Y28177503D03*
D18*
X29302352Y28677503D03*
D17*
X29302352Y29177503D03*
X29302352Y29677503D03*
G04 #@! TD*
D26*
G04 #@! TO.C,J2*
X61548603Y32000005D03*
D27*
X62698603Y36000005D03*
X63898603Y36000005D03*
X65098603Y36000005D03*
X66298603Y36000005D03*
D26*
X67448603Y32000005D03*
G04 #@! TD*
D12*
G04 #@! TO.C,H1*
X49498602Y17500001D03*
D13*
X49498602Y17500001D03*
G04 #@! TD*
D15*
G04 #@! TO.C,F1*
X28617352Y50277509D03*
X28617352Y53077509D03*
G04 #@! TD*
D26*
G04 #@! TO.C,J2*
X61548603Y23000003D03*
D27*
X62698603Y27000003D03*
X63898603Y27000003D03*
X65098603Y27000003D03*
X66298603Y27000003D03*
D26*
X67448603Y23000003D03*
G04 #@! TD*
D15*
G04 #@! TO.C,F1*
X69617353Y41277507D03*
X69617353Y44077507D03*
G04 #@! TD*
D20*
G04 #@! TO.C,J1*
X43488602Y26050003D03*
X37708602Y26050003D03*
D21*
X43823602Y24605003D03*
X43048602Y24605003D03*
D22*
X41848602Y24605003D03*
X40848602Y24605003D03*
X40348602Y24605003D03*
X39348602Y24605003D03*
D21*
X37373602Y24605003D03*
X38148602Y24605003D03*
D22*
X38848602Y24605003D03*
X39848602Y24605003D03*
X41348602Y24605003D03*
X42348602Y24605003D03*
D23*
X44918602Y25520003D03*
D24*
X44918602Y29700003D03*
D23*
X36278602Y25520003D03*
D24*
X36278602Y29700003D03*
G04 #@! TD*
D20*
G04 #@! TO.C,J1*
X43488602Y53050009D03*
X37708602Y53050009D03*
D21*
X43823602Y51605009D03*
X43048602Y51605009D03*
D22*
X41848602Y51605009D03*
X40848602Y51605009D03*
X40348602Y51605009D03*
X39348602Y51605009D03*
D21*
X37373602Y51605009D03*
X38148602Y51605009D03*
D22*
X38848602Y51605009D03*
X39848602Y51605009D03*
X41348602Y51605009D03*
X42348602Y51605009D03*
D23*
X44918602Y52520009D03*
D24*
X44918602Y56700009D03*
D23*
X36278602Y52520009D03*
D24*
X36278602Y56700009D03*
G04 #@! TD*
D12*
G04 #@! TO.C,H1*
X49498602Y53500009D03*
D13*
X49498602Y53500009D03*
G04 #@! TD*
D12*
G04 #@! TO.C,H1*
X90498603Y35500005D03*
D13*
X90498603Y35500005D03*
G04 #@! TD*
D14*
G04 #@! TO.C,FB1*
X75217353Y39040005D03*
X75217353Y36915005D03*
G04 #@! TD*
D25*
G04 #@! TO.C,D1*
X71817353Y41077507D03*
X71817353Y42477507D03*
G04 #@! TD*
D14*
G04 #@! TO.C,FB1*
X75217353Y30040003D03*
X75217353Y27915003D03*
G04 #@! TD*
D10*
G04 #@! TO.C,R1*
X74517353Y14667501D03*
X74517353Y15687501D03*
G04 #@! TD*
D19*
G04 #@! TO.C,KiKit_FID_T_3*
X5000000Y3850000D03*
G04 #@! TD*
G04 #@! TO.C,KiKit_TO_2*
X104497204Y68500010D03*
G04 #@! TD*
D26*
G04 #@! TO.C,J2*
X20548602Y23000003D03*
D27*
X21698602Y27000003D03*
X22898602Y27000003D03*
X24098602Y27000003D03*
X25298602Y27000003D03*
D26*
X26448602Y23000003D03*
G04 #@! TD*
D11*
G04 #@! TO.C,R2*
X32317352Y42687507D03*
X32317352Y41667507D03*
G04 #@! TD*
D16*
G04 #@! TO.C,U1*
X28532352Y20677501D03*
D17*
X28532352Y20177501D03*
D18*
X28532352Y19677501D03*
D17*
X28532352Y19177501D03*
X28532352Y18677501D03*
X29302352Y18677501D03*
X29302352Y19177501D03*
D18*
X29302352Y19677501D03*
D17*
X29302352Y20177501D03*
X29302352Y20677501D03*
G04 #@! TD*
D15*
G04 #@! TO.C,F1*
X69617353Y50277509D03*
X69617353Y53077509D03*
G04 #@! TD*
D10*
G04 #@! TO.C,R1*
X74517353Y50667509D03*
X74517353Y51687509D03*
G04 #@! TD*
D25*
G04 #@! TO.C,D1*
X30817352Y14077501D03*
X30817352Y15477501D03*
G04 #@! TD*
D16*
G04 #@! TO.C,U1*
X69532353Y56677509D03*
D17*
X69532353Y56177509D03*
D18*
X69532353Y55677509D03*
D17*
X69532353Y55177509D03*
X69532353Y54677509D03*
X70302353Y54677509D03*
X70302353Y55177509D03*
D18*
X70302353Y55677509D03*
D17*
X70302353Y56177509D03*
X70302353Y56677509D03*
G04 #@! TD*
D20*
G04 #@! TO.C,J1*
X43488602Y17050001D03*
X37708602Y17050001D03*
D21*
X43823602Y15605001D03*
X43048602Y15605001D03*
D22*
X41848602Y15605001D03*
X40848602Y15605001D03*
X40348602Y15605001D03*
X39348602Y15605001D03*
D21*
X37373602Y15605001D03*
X38148602Y15605001D03*
D22*
X38848602Y15605001D03*
X39848602Y15605001D03*
X41348602Y15605001D03*
X42348602Y15605001D03*
D23*
X44918602Y16520001D03*
D24*
X44918602Y20700001D03*
D23*
X36278602Y16520001D03*
D24*
X36278602Y20700001D03*
G04 #@! TD*
D11*
G04 #@! TO.C,R2*
X73317353Y33687505D03*
X73317353Y32667505D03*
G04 #@! TD*
D15*
G04 #@! TO.C,F1*
X28617352Y41277507D03*
X28617352Y44077507D03*
G04 #@! TD*
D26*
G04 #@! TO.C,J2*
X61548603Y14000001D03*
D27*
X62698603Y18000001D03*
X63898603Y18000001D03*
X65098603Y18000001D03*
X66298603Y18000001D03*
D26*
X67448603Y14000001D03*
G04 #@! TD*
D25*
G04 #@! TO.C,D1*
X30817352Y23077503D03*
X30817352Y24477503D03*
G04 #@! TD*
D12*
G04 #@! TO.C,H1*
X90498603Y44500007D03*
D13*
X90498603Y44500007D03*
G04 #@! TD*
D19*
G04 #@! TO.C,KiKit_TO_3*
X2500000Y2500000D03*
G04 #@! TD*
D16*
G04 #@! TO.C,U1*
X28532352Y38677505D03*
D17*
X28532352Y38177505D03*
D18*
X28532352Y37677505D03*
D17*
X28532352Y37177505D03*
X28532352Y36677505D03*
X29302352Y36677505D03*
X29302352Y37177505D03*
D18*
X29302352Y37677505D03*
D17*
X29302352Y38177505D03*
X29302352Y38677505D03*
G04 #@! TD*
D15*
G04 #@! TO.C,F1*
X28617352Y23277503D03*
X28617352Y26077503D03*
G04 #@! TD*
D16*
G04 #@! TO.C,U1*
X69532353Y20677501D03*
D17*
X69532353Y20177501D03*
D18*
X69532353Y19677501D03*
D17*
X69532353Y19177501D03*
X69532353Y18677501D03*
X70302353Y18677501D03*
X70302353Y19177501D03*
D18*
X70302353Y19677501D03*
D17*
X70302353Y20177501D03*
X70302353Y20677501D03*
G04 #@! TD*
D25*
G04 #@! TO.C,D1*
X71817353Y23077503D03*
X71817353Y24477503D03*
G04 #@! TD*
D12*
G04 #@! TO.C,H1*
X49498602Y44500007D03*
D13*
X49498602Y44500007D03*
G04 #@! TD*
D14*
G04 #@! TO.C,FB1*
X34217352Y57040009D03*
X34217352Y54915009D03*
G04 #@! TD*
D20*
G04 #@! TO.C,J1*
X84488603Y26050003D03*
X78708603Y26050003D03*
D21*
X84823603Y24605003D03*
X84048603Y24605003D03*
D22*
X82848603Y24605003D03*
X81848603Y24605003D03*
X81348603Y24605003D03*
X80348603Y24605003D03*
D21*
X78373603Y24605003D03*
X79148603Y24605003D03*
D22*
X79848603Y24605003D03*
X80848603Y24605003D03*
X82348603Y24605003D03*
X83348603Y24605003D03*
D23*
X85918603Y25520003D03*
D24*
X85918603Y29700003D03*
D23*
X77278603Y25520003D03*
D24*
X77278603Y29700003D03*
G04 #@! TD*
D14*
G04 #@! TO.C,FB1*
X75217353Y48040007D03*
X75217353Y45915007D03*
G04 #@! TD*
D25*
G04 #@! TO.C,D1*
X71817353Y50077509D03*
X71817353Y51477509D03*
G04 #@! TD*
D14*
G04 #@! TO.C,FB1*
X34217352Y30040003D03*
X34217352Y27915003D03*
G04 #@! TD*
D15*
G04 #@! TO.C,F1*
X69617353Y23277503D03*
X69617353Y26077503D03*
G04 #@! TD*
D12*
G04 #@! TO.C,H1*
X90498603Y17500001D03*
D13*
X90498603Y17500001D03*
G04 #@! TD*
M02*
